# xmcd CD database file
#
# Track frame offsets:
#	150
#	11690
#	24438
#	36958
#	47308
#	61920
#	71724
#	88222
#	102005
#	115564
#	127080
#	143190
#	154378
#
# Disc length: 2231 seconds
#
# Revision: 0
# Processed by: cddbd v1.5.1PL2 Copyright (c) Steve Scherf et al.
# Submitted via: CDex 1.51
#
DISCID=ab08b50d
DTITLE=Linda With Rip Masters - Rokin Goldies Show
DYEAR=2005
DGENRE=Jazz
TTITLE0=Biglow 6-200
TTITLE1=Don't Bet Money Honey
TTITLE2=Ring Telehone Ring
TTITLE3=That's All You Gotta Do
TTITLE4=In The Still of The Night
TTITLE5=Jump Back Honey
TTITLE6=Fever
TTITLE7=Rockabilly Girl
TTITLE8=Dear My DJ (Play it again)
TTITLE9=He's Got The Power
TTITLE10=Baby It's Cold Outside
TTITLE11=High School Confidential
TTITLE12=Angel Baby
EXTD=YEAR: 2005
EXTT0=
EXTT1=
EXTT2=
EXTT3=
EXTT4=
EXTT5=
EXTT6=
EXTT7=
EXTT8=
EXTT9=
EXTT10=
EXTT11=
EXTT12=
PLAYORDER=
